<?xml version="1.0" encoding="iso-8859-1"?>
<!-- Generator: Adobe Illustrator 19.0.0, SVG Export Plug-In . SVG Version: 6.00 Build 0)  -->
<svg version="1.1" id="Capa_1" xmlns="http://www.w3.org/2000/svg" xmlns:xlink="http://www.w3.org/1999/xlink" x="0px" y="0px"
	 viewBox="0 0 511.677 511.677" style="enable-background:new 0 0 511.677 511.677;" xml:space="preserve">
<path style="fill:#FFCE54;" d="M460.835,226.789L325.142,91.097l-0.047-0.039l-28.221-28.229c5.467,5.466,5.459,14.329-0.008,19.795
	c-5.458,5.466-14.321,5.466-19.787,0c-0.016-0.016-0.023-0.031-0.039-0.055l-0.047,0.047L250.217,55.84
	c-4.682-4.677-12.268-4.677-16.949,0c-4.685,4.685-4.685,12.275,0,16.953l43.741,43.737l-0.008,0.008
	c0.016,0.016,28.299,28.292,28.314,28.307c3.107,3.107,3.107,8.152,0,11.268c-3.115,3.108-8.16,3.108-11.268,0
	c-0.016-0.016-28.291-28.299-28.307-28.314h-0.008L181.413,43.48c-4.686-4.677-12.271-4.677-16.953,0
	c-4.681,4.685-4.681,12.268,0,16.953l67.397,67.397c3.112,3.108,3.112,8.16-0.004,11.276c-3.108,3.108-8.156,3.108-11.264-0.008
	c-0.016-0.016-106.066-105.887-106.066-105.887c-4.682-4.685-12.268-4.685-16.953,0c-4.681,4.685-4.681,12.268,0,16.953
	l117.721,117.717c2.659,3.14,2.612,7.793-0.347,10.753c-3.112,3.108-8.156,3.108-11.268-0.008
	c-0.016-0.008-31.922-31.688-31.922-31.688c-4.686-4.686-12.271-4.686-16.953,0c-4.682,4.685-4.682,12.267,0,16.952l49.344,49.344
	c2.522,3.131,2.448,7.668-0.461,10.581c-3.108,3.107-8.156,3.107-11.268,0c-0.012-0.016-0.02-0.031-0.031-0.047l-0.223,0.219
	l-95.833-95.829c-4.682-4.686-12.268-4.686-16.953,0c-4.681,4.677-4.681,12.268,0,16.945l136.521,136.52
	c2.069,3.101,1.878,7.255-0.855,9.987c-3.107,3.116-8.156,3.116-11.268,0c-0.012-0.016-0.02-0.031-0.031-0.047l-0.266,0.266
	L22.799,111.15c-4.682-4.677-12.268-4.677-16.953,0c-4.681,4.686-4.681,12.275,0,16.953l153.735,153.738
	c1.878,3.069,1.624,7.067-1.031,9.722c-3.107,3.108-8.457,3.335-11.568,0.227l-48.043-48.047c-4.685-4.678-12.271-4.678-16.953,0
	c-4.682,4.686-4.682,12.268,0,16.953c0,0,53.724,53.724,53.744,53.739c5.466,5.466,5.462,14.337-0.004,19.804
	c-5.462,5.458-14.325,5.458-19.792-0.008l118.729,118.731c62.462,62.454,163.718,62.462,226.173,0.008
	C523.297,390.508,523.289,289.252,460.835,226.789z"/>
<g style="opacity:0.5;">
	<path style="fill:#FFFFFF;" d="M282.748,144.814c-7.879-7.887-16.999-17.008-17.007-17.016l0,0
		c7.879,7.887,16.983,17,16.999,17.008L282.748,144.814z"/>
	<path style="fill:#FFFFFF;" d="M460.835,226.789l-11.308-11.307c62.454,62.454,62.462,163.718,0,226.172
		c-62.454,62.463-163.718,62.455-226.173,0l11.308,11.308c62.462,62.454,163.718,62.462,226.173,0.008
		C523.297,390.508,523.289,289.252,460.835,226.789z"/>
	<path style="fill:#FFFFFF;" d="M277.001,116.538L277.001,116.538c0.008,0.008,9.128,9.128,17.016,17.007
		c0,0-0.008-0.008-0.008-0.016C294.001,133.522,284.888,124.417,277.001,116.538z"/>
</g>
<path style="fill:#CCD1D9;" d="M426.898,238.105l1.266,3.514l-0.398,0.164l-102.662,64.211l-128.902-51.576l111.949-67.171
	L426.898,238.105z M338.691,248.982c1.522-4.17-3.358-9.839-10.956-12.72c-7.59-2.874-15.032-1.835-16.625,2.241
	c-1.522,4.162,3.358,9.839,10.956,12.712C329.663,254.097,337.089,253.136,338.691,248.982z"/>
<path style="fill:#AAB2BD;" d="M327.735,236.262c7.598,2.881,12.479,8.55,10.956,12.72c-1.602,4.154-9.027,5.115-16.625,2.233
	c-7.598-2.873-12.479-8.55-10.956-12.712C312.702,234.426,320.145,233.388,327.735,236.262z"/>
<g style="opacity:0.2;">
	<path d="M330.054,251.215c-7.598-2.873-12.471-8.55-10.948-12.712c0.656-1.671,2.319-2.795,4.537-3.389
		c-6.013-1.202-11.229,0.055-12.533,3.389c-1.522,4.162,3.358,9.839,10.956,12.712c4.521,1.718,8.948,2.046,12.158,1.18
		C332.864,252.113,331.467,251.754,330.054,251.215z"/>
</g>
<path style="fill:#CCD1D9;" d="M428.163,241.618l38.309,103.872L406.9,437.609l-0.562-0.397l-81.234-131.219l102.662-64.211
	L428.163,241.618z M407.618,347.333c3.842-2.319,4.084-8.715,0.64-14.392c-3.436-5.677-9.276-8.48-13.032-6.161
	s-4.076,8.715-0.641,14.384C398.028,346.849,403.862,349.574,407.618,347.333z"/>
<path style="fill:#AAB2BD;" d="M408.258,332.942c3.444,5.677,3.202,12.072-0.64,14.392c-3.756,2.241-9.59-0.484-13.033-6.169
	c-3.436-5.669-3.115-12.064,0.641-14.384S404.822,327.265,408.258,332.942z"/>
<g style="opacity:0.2;">
	<path d="M402.581,341.164c-3.232-5.333-3.021-11.197,0.133-13.806c-2.632-1.522-5.38-1.874-7.488-0.578
		c-3.756,2.319-4.076,8.715-0.641,14.384c3.443,5.685,9.277,8.41,13.033,6.169c0.242-0.141,0.336-0.422,0.538-0.594
		C406.087,345.561,404.104,343.679,402.581,341.164z"/>
</g>
<path style="fill:#AAB2BD;" d="M289.995,338.939c12.158,15.673,15.031,33.897,6.316,40.613c-8.714,6.802-25.659-0.398-37.903-16.07
	c-12.154-15.758-15.032-33.905-6.317-40.699C260.81,315.988,277.759,323.267,289.995,338.939z"/>
<g style="opacity:0.2;">
	<path d="M274.401,363.482c-12.15-15.75-15.032-33.905-6.31-40.699c0.305-0.242,0.703-0.336,1.039-0.547
		c-6.63-2.678-12.811-2.748-17.039,0.547c-8.714,6.794-5.837,24.941,6.317,40.699c11.775,15.087,27.854,22.185,36.818,16.641
		C288.214,377.295,280.687,371.54,274.401,363.482z"/>
</g>
<path style="fill:#CCD1D9;" d="M406.9,437.609l-2.64,4.076l-158.322-22.621l-56.535-79.181l5.681-84.827l1.117-0.64l128.902,51.576
	l81.234,131.219L406.9,437.609z M296.312,379.552c8.715-6.716,5.842-24.94-6.316-40.613c-12.236-15.672-29.186-22.95-37.904-16.156
	c-8.714,6.794-5.837,24.941,6.317,40.699C270.652,379.153,287.598,386.354,296.312,379.552z"/>
<g style="opacity:0.2;">
	<path d="M426.898,238.105l1.266,3.514l-0.398,0.164l-102.662,64.211l-128.902-51.576l111.949-67.171L426.898,238.105z"/>
</g>
<g style="opacity:0.1;">
	<path d="M428.163,241.618l38.309,103.872L406.9,437.609l-0.562-0.397l-81.234-131.219l102.662-64.211L428.163,241.618z"/>
</g>
<g style="opacity:0.5;">
	<polygon style="fill:#FFCE54;" points="406.9,437.609 466.472,345.49 459.905,327.671 395.593,426.303 233.916,402.221 
		245.938,419.065 404.26,441.686 	"/>
</g>
<g>
	<path style="fill:#3A3847;" d="M195.095,259.07c-1.358,0-2.682-0.694-3.432-1.943c-1.136-1.891-0.523-4.346,1.37-5.482
		l113.087-67.842c1.896-1.136,4.35-0.523,5.481,1.371c1.14,1.894,0.522,4.35-1.366,5.485l-113.086,67.842
		C196.505,258.891,195.794,259.07,195.095,259.07z"/>
	<path style="fill:#3A3847;" d="M189.438,343.89c-0.09,0-0.18,0-0.27-0.008c-2.202-0.148-3.869-2.054-3.725-4.256l5.657-84.819
		c0.148-2.202,2.14-3.775,4.256-3.725c2.202,0.148,3.869,2.054,3.725,4.256l-5.657,84.818
		C193.283,342.274,191.523,343.89,189.438,343.89z"/>
	<path style="fill:#3A3847;" d="M245.981,423.047c-1.249,0-2.476-0.578-3.256-1.672l-56.543-79.156
		c-1.285-1.797-0.867-4.295,0.929-5.584c1.796-1.272,4.295-0.866,5.575,0.93l56.543,79.157c1.285,1.796,0.867,4.295-0.929,5.583
		C247.597,422.805,246.785,423.047,245.981,423.047z"/>
	<path style="fill:#3A3847;" d="M404.299,445.66c-0.188,0-0.382-0.016-0.569-0.039l-158.319-22.613
		c-2.187-0.312-3.706-2.335-3.393-4.521s2.327-3.639,4.525-3.396l158.318,22.613c2.187,0.312,3.701,2.335,3.389,4.521
		C407.97,444.224,406.259,445.66,404.299,445.66z"/>
	<path style="fill:#3A3847;" d="M404.291,445.66c-0.749,0-1.499-0.21-2.171-0.64c-1.851-1.202-2.381-3.678-1.187-5.528
		l62.196-96.126c1.203-1.858,3.678-2.366,5.529-1.187c1.857,1.202,2.389,3.678,1.187,5.528l-62.196,96.126
		C406.884,445.021,405.603,445.66,404.291,445.66z"/>
	<path style="fill:#3A3847;" d="M466.487,349.535c-1.623,0-3.154-1-3.748-2.616l-39.574-107.425
		c-0.766-2.073,0.297-4.369,2.366-5.134c2.062-0.761,4.364,0.293,5.138,2.37l39.575,107.424c0.757,2.07-0.297,4.373-2.374,5.131
		C467.417,349.457,466.948,349.535,466.487,349.535z"/>
	<path style="fill:#3A3847;" d="M426.913,242.11c-0.523,0-1.062-0.102-1.569-0.324l-118.74-50.882
		c-2.03-0.871-2.975-3.221-2.101-5.248c0.867-2.034,3.241-2.971,5.248-2.101l118.739,50.883c2.03,0.871,2.968,3.221,2.101,5.248
		C429.943,241.204,428.467,242.11,426.913,242.11z"/>
	<path style="fill:#3A3847;" d="M398.646,428.7c-1.343,0-2.647-0.672-3.404-1.897l-73.504-118.74
		c-1.164-1.874-0.586-4.342,1.296-5.497c1.874-1.163,4.342-0.586,5.505,1.296l73.504,118.74c1.156,1.874,0.578,4.342-1.296,5.497
		C400.09,428.505,399.364,428.7,398.646,428.7z"/>
	<path style="fill:#3A3847;" d="M325.134,309.961c-0.492,0-0.999-0.094-1.483-0.289l-113.083-45.229
		c-2.05-0.82-3.049-3.147-2.229-5.193c0.819-2.054,3.158-3.053,5.196-2.225l113.083,45.228c2.053,0.82,3.053,3.147,2.232,5.193
		C328.227,309.008,326.72,309.961,325.134,309.961z"/>
	<path style="fill:#3A3847;" d="M288.277,386.143c-10.635,0-23.27-7.746-32.96-20.217c-6.313-8.113-10.502-17.18-11.795-25.527
		c-1.425-9.183,0.773-16.555,6.188-20.755c2.851-2.218,6.481-3.39,10.507-3.39c10.64,0,23.267,7.746,32.965,20.225
		c6.31,8.113,10.503,17.18,11.791,25.52c1.43,9.183-0.766,16.555-6.185,20.756C295.937,384.971,292.306,386.143,288.277,386.143z
		 M260.216,324.25c-2.261,0-4.146,0.57-5.603,1.703c-2.976,2.311-4.135,7.129-3.19,13.22c1.089,7.028,4.712,14.782,10.203,21.849
		c7.965,10.245,18.678,17.125,26.65,17.125c2.265,0,4.154-0.57,5.607-1.702c2.975-2.312,4.139-7.13,3.193-13.221
		c-1.094-7.02-4.717-14.782-10.206-21.841C278.906,331.138,268.193,324.25,260.216,324.25z"/>
	<path style="fill:#3A3847;" d="M404.674,352.136c-4.927,0-10.214-3.483-13.462-8.871c-2.062-3.396-3.116-7.2-2.968-10.698
		c0.172-4.045,1.968-7.387,4.936-9.183c5.614-3.413,14.009-0.016,18.546,7.465c4.646,7.668,3.779,16.414-1.977,19.904
		C408.227,351.667,406.525,352.136,404.674,352.136z M398.263,329.99c-0.375,0-0.68,0.078-0.937,0.234
		c-0.633,0.382-1.039,1.382-1.094,2.678c-0.086,1.913,0.578,4.186,1.819,6.231c2.405,3.975,6.099,5.63,7.551,4.779
		c1.398-0.844,1.82-4.748-0.718-8.926C402.901,331.708,400.051,329.99,398.263,329.99z"/>
	<path style="fill:#3A3847;" d="M330.523,256.885c-3.14,0-6.536-0.656-9.84-1.906c-9.979-3.807-15.672-11.483-13.251-17.863
		c2.343-6.212,12.236-8.195,21.778-4.548c6.083,2.295,10.886,6.251,12.838,10.581c1.124,2.495,1.265,5.006,0.406,7.271
		C340.923,254.464,336.464,256.885,330.523,256.885z M319.371,238.635c-2.968,0-4.311,0.906-4.467,1.316
		c-0.429,1.14,2.374,5.173,8.621,7.551c2.39,0.906,4.817,1.39,6.997,1.39c2.959,0,4.295-0.898,4.45-1.308
		c0.086-0.227,0.008-0.664-0.21-1.147c-0.875-1.937-3.812-4.666-8.395-6.396C323.963,239.119,321.542,238.635,319.371,238.635z"/>
	<path style="fill:#3A3847;" d="M325.142,309.961c-1.335,0-2.639-0.664-3.396-1.883c-1.172-1.866-0.602-4.334,1.272-5.505
		l90.473-56.543c1.874-1.175,4.341-0.605,5.505,1.269c1.172,1.874,0.602,4.342-1.266,5.509l-90.472,56.543
		C326.595,309.766,325.86,309.961,325.142,309.961z"/>
	<path style="fill:#3A3847;" d="M347.756,503.727c-41.972,0-83.956-15.977-115.913-47.93c-1.562-1.562-1.562-4.092,0-5.654
		c1.562-1.562,4.092-1.562,5.653,0c60.8,60.775,159.721,60.791,220.512,0c29.454-29.446,45.673-68.6,45.673-110.259
		c0-41.652-16.219-80.806-45.673-110.252c-1.562-1.562-1.562-4.092,0-5.653c1.562-1.562,4.092-1.562,5.653,0
		c30.962,30.958,48.016,72.121,48.016,115.905c0,43.791-17.054,84.959-48.016,115.913
		C431.708,487.75,389.735,503.727,347.756,503.727z"/>
	<path style="fill:#3A3847;" d="M234.67,456.968c-1.023,0-2.046-0.391-2.827-1.171L18.137,242.087c-1.562-1.562-1.562-4.092,0-5.654
		c1.562-1.562,4.092-1.562,5.654,0l213.706,213.709c1.562,1.562,1.562,4.092,0,5.654
		C236.716,456.577,235.693,456.968,234.67,456.968z"/>
	<path style="fill:#3A3847;" d="M460.835,230.803c-1.023,0-2.047-0.39-2.827-1.171L288.386,60.01c-1.562-1.562-1.562-4.092,0-5.654
		s4.092-1.562,5.654,0l169.621,169.622c1.562,1.562,1.562,4.092,0,5.653C462.88,230.413,461.858,230.803,460.835,230.803z"/>
	<path style="fill:#3A3847;" d="M166.819,332.582c-1.023,0-2.046-0.391-2.827-1.171l-39.579-39.583
		c-1.562-1.562-1.562-4.092,0-5.653s4.092-1.562,5.653,0l39.579,39.583c1.562,1.562,1.562,4.092,0,5.653
		C168.865,332.192,167.842,332.582,166.819,332.582z"/>
	<path style="fill:#3A3847;" d="M155.513,264.733c-1.023,0-2.046-0.391-2.827-1.172L14.24,125.119c-1.562-1.562-1.562-4.091,0-5.653
		s4.092-1.562,5.654,0l138.445,138.441c1.562,1.562,1.562,4.092,0,5.653C157.559,264.342,156.535,264.733,155.513,264.733z"/>
	<path style="fill:#3A3847;" d="M166.819,219.496c-1.023,0-2.046-0.391-2.827-1.171l-57.914-57.91c-1.562-1.562-1.562-4.092,0-5.653
		c1.562-1.562,4.092-1.562,5.653,0l57.914,57.909c1.562,1.562,1.562,4.092,0,5.654C168.865,219.106,167.842,219.496,166.819,219.496
		z"/>
	<path style="fill:#3A3847;" d="M195.095,191.229c-1.022,0-2.046-0.391-2.827-1.171l-28.271-28.276
		c-1.562-1.562-1.562-4.092,0-5.653s4.092-1.562,5.654,0l28.271,28.275c1.562,1.562,1.562,4.092,0,5.654
		C197.141,190.838,196.118,191.229,195.095,191.229z"/>
	<path style="fill:#3A3847;" d="M200.749,140.331c-1.023,0-2.046-0.391-2.827-1.171l-91.839-91.831
		c-1.562-1.562-1.562-4.092,0-5.654s4.092-1.562,5.653,0l91.839,91.831c1.562,1.562,1.562,4.092,0,5.654
		C202.795,139.941,201.772,140.331,200.749,140.331z"/>
	<path style="fill:#3A3847;" d="M279.905,162.953c-1.022,0-2.045-0.391-2.826-1.172l-45.236-45.236
		c-1.562-1.562-1.562-4.092,0-5.654s4.092-1.562,5.653,0l45.236,45.236c1.562,1.562,1.562,4.092,0,5.653
		C281.952,162.563,280.929,162.953,279.905,162.953z"/>
	<path style="fill:#3A3847;" d="M359.064,185.567c-1.023,0-2.047-0.39-2.827-1.171L294.041,122.2c-1.562-1.562-1.562-4.092,0-5.654
		s4.092-1.562,5.653,0l62.196,62.197c1.562,1.562,1.562,4.092,0,5.653C361.109,185.177,360.086,185.567,359.064,185.567z"/>
	<path style="fill:#3A3847;" d="M115.93,281.692c-1.022,0-2.046-0.39-2.827-1.171L90.489,257.9c-1.562-1.562-1.562-4.092,0-5.653
		c1.562-1.562,4.092-1.562,5.653,0l22.614,22.622c1.562,1.562,1.562,4.092,0,5.653C117.976,281.303,116.953,281.692,115.93,281.692z
		"/>
	<path style="fill:#3A3847;" d="M97.599,150.279c-1.022,0-2.046-0.391-2.827-1.171l-5.658-5.654c-1.562-1.558-1.562-4.092,0-5.653
		c1.562-1.562,4.092-1.562,5.654,0l5.658,5.653c1.562,1.558,1.562,4.092,0,5.654C99.645,149.889,98.622,150.279,97.599,150.279z"/>
	<path style="fill:#3A3847;" d="M212.056,208.189c-1.023,0-2.046-0.39-2.827-1.171l-5.653-5.653c-1.562-1.562-1.562-4.092,0-5.654
		c1.562-1.562,4.092-1.562,5.653,0l5.654,5.654c1.562,1.562,1.562,4.092,0,5.653C214.102,207.799,213.078,208.189,212.056,208.189z"
		/>
	<path style="fill:#3A3847;" d="M257.288,196.882c-1.023,0-2.046-0.391-2.827-1.171l-45.232-45.236
		c-1.562-1.562-1.562-4.092,0-5.653c1.562-1.562,4.092-1.562,5.654,0l45.232,45.236c1.562,1.562,1.562,4.092,0,5.653
		C259.333,196.491,258.311,196.882,257.288,196.882z"/>
	<path style="fill:#3A3847;" d="M223.362,106.41c-1.022,0-2.046-0.39-2.826-1.171l-47.575-47.571c-1.562-1.562-1.562-4.092,0-5.654
		s4.092-1.562,5.653,0l47.575,47.571c1.562,1.562,1.562,4.092,0,5.653C225.408,106.02,224.386,106.41,223.362,106.41z"/>
	<path style="fill:#3A3847;" d="M285.56,112.064c-1.023,0-2.046-0.391-2.827-1.172l-40.949-40.949c-1.562-1.562-1.562-4.092,0-5.654
		c1.562-1.562,4.092-1.562,5.654,0l40.949,40.949c1.562,1.562,1.562,4.092,0,5.653C287.606,111.673,286.582,112.064,285.56,112.064z
		"/>
	<path style="fill:#3A3847;" d="M279.905,49.875c-1.022,0-2.045-0.391-2.826-1.171l-33.925-33.929c-1.562-1.562-1.562-4.092,0-5.654
		s4.092-1.562,5.654,0l33.925,33.929c1.562,1.562,1.562,4.092,0,5.653C281.952,49.484,280.929,49.875,279.905,49.875z"/>
	<path style="fill:#3A3847;" d="M9.653,231.959c-1.023,0-2.05-0.391-2.831-1.172l-5.654-5.661c-1.558-1.565-1.558-4.096,0.004-5.657
		c1.562-1.554,4.096-1.558,5.658,0.004l5.653,5.661c1.558,1.565,1.558,4.096-0.004,5.657
		C11.699,231.568,10.676,231.959,9.653,231.959z"/>
</g>
<g>
</g>
<g>
</g>
<g>
</g>
<g>
</g>
<g>
</g>
<g>
</g>
<g>
</g>
<g>
</g>
<g>
</g>
<g>
</g>
<g>
</g>
<g>
</g>
<g>
</g>
<g>
</g>
<g>
</g>
</svg>
